<?xml version="1.0" encoding="utf-8"?>
<!-- Generator: Adobe Illustrator 19.2.1, SVG Export Plug-In . SVG Version: 6.00 Build 0)  -->
<svg version="1.1" baseProfile="basic" id="Layer_1"
	 xmlns="http://www.w3.org/2000/svg" xmlns:xlink="http://www.w3.org/1999/xlink" x="0px" y="0px" viewBox="0 0 550 75"
	 xml:space="preserve">
<g id="Layer_2">
</g>
<rect fill="#0094FF" width="550" height="75"/>
<g id="Layer_1_1_">
	<g>
		<path fill="#FFFFFF" d="M128.4,36.7v0.2c0,0.1,0,0.1,0.1,0.1s0.1-0.1,0.1-0.1v-0.2c0-0.1,0-0.1-0.1-0.1
			C128.4,36.6,128.4,36.6,128.4,36.7z M132.3,36.3v0.3c0,0.1,0,0.1,0.1,0.1s0.1-0.1,0.1-0.1v-0.3c0-0.1,0-0.1-0.1-0.1
			C132.3,36.1,132.3,36.2,132.3,36.3z M140.9,15c-12.4,0-22.5,10.1-22.5,22.5c0,4.7,1.4,9,3.9,12.6l0.5-0.2v-2.5
			c0-0.4,0.4-0.5,0.4-0.2c0,0,0,1.6,0,1.9c0,0.5,0.4,0.6,0.4,0.1c0-0.3,0-2.8,0-2.8c0-0.5,0.8-0.5,0.8-0.2c0,0.6,0,2.4,0,2.6
			c0,0.4,0.4,0.4,0.4,0c0-0.2,0-3,0-3c0-0.4,0.8-0.5,0.8-0.2c0,0,0,2.4,0,2.8c0,0.4,0.4,0.4,0.4,0c0-0.2,0-3,0-3.1
			c0-0.3,0.8-0.5,0.8-0.1c0,0,0,2.3,0,2.7s0.4,0.3,0.4,0c0-0.3,0-2.6,0-2.9s0.3-0.5,0.5-0.3c0.3,0.2,0.5,0,0.5,0.3
			c0,0.4,0,2.4,0,2.7c0,0.3,0.4,0.3,0.4,0c0-0.2,0-2.8,0-3c0-0.1,0.6-0.3,0.7,0c0,0.2,0.6,0.1,0.6,0.3c0,0.3,0,2.4,0,2.6
			s0.4,0.2,0.4,0s0-2.8,0-3c0-0.2,0.7-0.1,0.7,0.2c0,0.2,0.6,0.1,0.6,0.2c0,0.3,0,2.4,0,2.6c0,0.2,0.4,0.2,0.4,0c0-0.2,0-2.9,0-3
			c0-0.1,0.6-0.3,0.6,0s0.6,0.2,0.6,0.5c0,0.6,0,2.1,0,2.6c0,0.3,0.4,0.2,0.4-0.1s0-2.3,0-2.7c0-0.2,0.5-0.3,0.6,0
			c0.2,0.3,0.5,0.1,0.5,0.3c0,0.5,0,2,0,2.3c0,0.4,0.4,0.5,0.4,0c0-0.3,0-2.4,0-2.4c0.1-0.3,0.7,0.6,0.9,0.2c0,0,0.7-0.8-0.2-1
			c-5.9-1.5-9.9,0-11.7,1c-0.1,0.1-0.6,0.3-0.9,0.5c-0.3,0.2-0.7,0.5-0.6,0.4c0.2-0.8,0.2-0.8,1.1-1.4c3.5-2,8.3-2.3,12.7-1.1
			c1,0.2,1.8,0.7,1.8,0.5c0-0.2-0.5-0.5-1.5-0.8c-1.4-0.5-8.3-2.1-13.7,1.4c-0.2,0.1,0.6-0.9,1.2-1.1v-0.9l-0.4-0.7v-0.5
			c3.1-2.4,8.9-2.3,11.7-1.6c0.9,0.2,1.6,0.6,1.6,0.4c0-0.2-1.7-0.8-2-0.9c-3-0.7-6.9-0.5-10.1,0.7c-0.4,0.2-0.8,0.4-0.8,0.3
			c-0.1-0.1,0.3-0.6,0.5-0.8c2.6-2.5,8.4-1.8,8.7-1.7c0.8,0.1,2.1,0.5,2.1,0.3s-0.8-0.5-2-0.6c-4.2-0.5-6.7,0.4-7.8,0.9
			c-0.2,0.1-0.3,0.2-0.5,0.1c-0.1,0,0-0.4,0.1-0.6c0,0,1-2.7,4.1-4.6c0,0,0.4-0.8,0.8-1.2c0,0,0-0.9,0-1.1s-0.4-0.8-0.4-0.8
			s-0.1-0.2,0-0.3c0.6-0.9,1.1-1.2,1.1-1.6c0-0.4,0.1-2.6,0.4-2.6s0.4,2.3,0.4,2.7c0,0.4,0.6,0.8,1.1,1.5c0.1,0.1,0,0.3,0,0.3
			s-0.3,0.4-0.3,0.7c0,0.4,0,1.1,0,1.1c0.6,0.5,0.8,1.3,0.8,1.2c3.9,2.5,4.1,5.7,4.2,5.8c1,0.7,1.6,2,1.6,2s0,0.3,0,0.6
			c0,0.3-0.4,0.7-0.4,0.7v0.6c0.8,0.4,1.6,1.4,1.8,1.7c0.1,0.2-0.1,1-0.1,1s-0.2,0.6-0.5,1c-0.1,0.1,0,1.5,0,1.5l17.3,4.1
			c3.6-4,5.9-9.3,5.9-15.2C163.4,25.1,153.3,15,140.9,15z M150.6,37.4V36c0-1.2,0.6-1.6,1.4-1.6c1,0,1.3,0.6,1.3,1.3V36h-1v-0.5
			c0-0.2-0.1-0.4-0.3-0.4c-0.4,0-0.3,0.4-0.3,1v1c0,0.9,0,1,0.3,1c0.3,0,0.3-0.3,0.3-0.7v-0.4h1v0.4c0,0.9-0.3,1.4-1.3,1.4
			C151.1,39.1,150.6,38.6,150.6,37.4z M146.9,34.6h1V35h-0.1c0.2-0.4,0.7-0.6,0.9-0.6c0.6,0,1,0.3,1,1.1V39h-1V36
			c0-0.4,0-0.7-0.4-0.7c-0.4,0-0.4,0.3-0.4,0.8v2.8h-1L146.9,34.6L146.9,34.6z M140.3,37.3v-0.5h1.2v0.4c-0.2,0.6,0.1,1,0.7,1
			c0.5,0,0.7-0.2,0.7-0.7c0-0.3-0.2-0.6-0.4-0.8c-0.6-0.5-1.3-0.8-1.7-1.4c-0.2-0.3-0.3-0.6-0.3-0.9c0-1,0.6-1.6,1.7-1.6
			c1.7,0,1.7,1.4,1.7,1.9h-1c0-0.5,0-1-0.6-1c-0.4,0-0.6,0.1-0.6,0.6c0,0.5,0.3,0.6,0.6,0.8c0.3,0.2,1,0.7,1.3,1
			c0.4,0.4,0.5,0.7,0.5,1.2c0,1.1-0.8,1.7-1.8,1.7C140.8,39.1,140.3,38.4,140.3,37.3z M145.7,45.7h-1v-3.9h-1.5V41
			c0.8,0,1.4-0.2,1.7-1h0.8C145.7,40,145.7,45.7,145.7,45.7z M145.9,38.9h-1v-4.3h1V38.9z M145.9,34h-1v-0.8h1V34z M150,43.6
			c0,1.9-0.6,2.4-1.7,2.4c-0.9,0-1.5-0.5-1.5-1.3h1c0,0.2,0,0.5,0.4,0.4c0.6,0,0.5-0.8,0.5-1.1v-0.4c0,0.2-0.3,0.4-0.8,0.4
			c-0.9,0-1.3-0.6-1.3-1.8c0-1.5,0.4-2.2,1.7-2.2c1.3,0,1.7,0.9,1.7,2.2L150,43.6L150,43.6z M152,45.9c-1.5,0-1.8-1.1-1.6-1.7v-0.3
			h0.9c0,0.4-0.1,1.2,0.6,1.2c0.6,0,0.6-0.6,0.6-1.1c0-0.2,0-0.5-0.1-0.6c-0.2-0.2-0.7-0.2-1-0.2v-0.9c0.2,0,0.5,0,0.7-0.1
			c0.3-0.1,0.3-0.4,0.3-0.7c0-0.5-0.1-0.7-0.5-0.7c-0.2,0-0.5,0.1-0.5,0.5v0.3h-1c-0.1-1,0.4-1.7,1.5-1.7c1.1,0,1.6,0.6,1.6,1.5
			c0,0.5-0.2,1.1-0.8,1.2l0,0c0.6,0.1,1,0.5,0.9,1.4C153.7,45.3,153.2,45.9,152,45.9z M155.5,34.5c1.4,0,1.6,0.7,1.6,1.9v0.5H155
			v0.8c0,0.6,0.3,0.7,0.6,0.7c0.4,0,0.5-0.2,0.5-0.8h1c0,1-0.4,1.6-1.5,1.6c-1.2,0-1.7-0.6-1.7-1.9v-1.1
			C154,35,154.5,34.5,155.5,34.5z M156.4,43.7c-0.2,0.7-0.3,1.5-0.3,2.1h-1.1c0.1-1,0.5-2.4,0.9-3.5c0.1-0.3,0.4-0.8,0.7-1.2h-2.4
			v-0.8h3.3v0.7C157,41.8,156.6,42.7,156.4,43.7z M129.2,36.5v0.3c0,0.1,0.1,0.1,0.2,0.1s0.2-0.1,0.2-0.1v-0.3
			c0-0.1-0.1-0.1-0.2-0.1S129.2,36.4,129.2,36.5z M130.4,36.3v0.3c0,0.1,0,0.1,0.1,0.1s0.1-0.1,0.1-0.1v-0.3c0-0.1,0-0.1-0.1-0.1
			S130.4,36.2,130.4,36.3z M131.3,36.3v0.3c0,0.1,0.1,0.1,0.2,0.1s0.2-0.1,0.2-0.1v-0.3c0-0.1-0.1-0.1-0.2-0.1
			C131.4,36.1,131.3,36.2,131.3,36.3z M131.7,49.3l-3.7-0.7l-5.4,2c0.1,0.2,0.3,0.4,0.4,0.6l5-1.8l3.7,0.6l2.9-1.2l21.8,5
			c0.1-0.1,0.2-0.2,0.2-0.2l-22-5.4C134.5,48.3,131.7,49.3,131.7,49.3z M131.7,51.4l-3.7-0.6l-4.1,1.5c0.2,0.2,0.4,0.4,0.6,0.6
			l3-1.2v3.8c0.3,0.2,0.6,0.4,0.8,0.6v-4.4l2.9,0.5v5.6c0.3,0.2,0.7,0.3,1,0.5v-6.2l1.9-0.7V59c0.3,0.1,0.6,0.2,0.8,0.2v-8.1
			l0.8,0.2v8.2c0.3,0.1,0.6,0.1,0.8,0.2v-8.2l0.8,0.2v8.1c0.3,0,0.6,0.1,0.8,0.1v-8.1l0.8,0.2v8c0.3,0,0.6,0,0.8,0v-7.9l0.8,0.2V60
			c0,0,0.1,0,0.1,0c0.2,0,0.4,0,0.7,0v-7.5l0.8,0.2V60c0.3,0,0.6,0,0.8-0.1v-7.1l0.8,0.2v6.8c0.2,0,0.4-0.1,0.6-0.1v-6.5l0.8,0.2
			v6.2c0.3-0.1,0.6-0.1,0.8-0.2v-5.8l0.8,0.2v5.4c0.3-0.1,0.6-0.2,0.8-0.2v-5l0.8,0.2v4.5c0.3-0.1,0.6-0.2,0.8-0.3v-4l0.6,0.2V58h0
			c0.3-0.1,0.6-0.3,0.9-0.4v-3l0.8,0.2v2.4c0.3-0.2,0.6-0.3,0.8-0.5v-1.7l0.8,0.2v1c0.7-0.5,1.2-0.9,1.9-1.4l-20.8-4.5L131.7,51.4z
			 M155,36.3h1v-0.4c0-0.5-0.1-0.6-0.6-0.6c-0.5,0-0.5,0.4-0.5,0.8V36.3z M131,48.5c1.2,0,1.7,0.3,1.7,0c0-0.2-0.6-0.4-1.8-0.4
			c-1.5,0-1.6,0.1-1.6,0.5C129.3,48.8,129.7,48.5,131,48.5z M148.3,40.8c-0.6,0-0.5,0.6-0.5,1.3c0,0.4-0.1,1,0.5,1
			c0.6,0,0.6-0.6,0.6-1C148.9,41.4,148.9,40.8,148.3,40.8z M126.6,37.4v0.1c0,0.1,0.1,0.1,0.1,0.1c0.1,0,0.1-0.1,0.1-0.1v-0.1
			c0-0.1-0.1-0.1-0.1-0.1C126.7,37.2,126.6,37.3,126.6,37.4z M125.7,41.6v1.3c0,0.1,0,0.1,0.1,0.1s0.1-0.1,0.1-0.1v-1.3
			c0-0.1,0-0.1-0.1-0.1C125.7,41.4,125.7,41.5,125.7,41.6z M128.8,40.5V42c0,0.1,0.1,0.2,0.2,0.2c0.1,0,0.2-0.1,0.2-0.2v-1.5
			c0-0.1-0.1-0.2-0.2-0.2C128.9,40.4,128.8,40.4,128.8,40.5z M127.6,36.9c-0.1,0-0.1,0.1-0.1,0.1v0.1c0,0.1,0.1,0.1,0.1,0.1
			s0.1-0.1,0.1-0.1V37C127.7,36.9,127.7,36.9,127.6,36.9z M124.9,42.1v1.1c0,0.1,0,0.1,0.1,0.1s0.1-0.1,0.1-0.1v-1.1
			c0-0.1,0-0.1-0.1-0.1S124.9,42,124.9,42.1z M126.5,41.1v1.5c0,0.1,0.1,0.2,0.2,0.2c0.1,0,0.2-0.1,0.2-0.2v-1.5
			c0-0.1-0.1-0.2-0.2-0.2C126.6,40.9,126.5,41,126.5,41.1z M131.3,40.3v1.5c0,0.1,0,0.2,0.1,0.2c0.1,0,0.1-0.1,0.1-0.2v-1.5
			c0-0.1,0-0.2-0.1-0.2C131.3,40.1,131.3,40.2,131.3,40.3z M133.5,40.3v1.5c0,0.1,0,0.2,0.1,0.2c0.1,0,0.1-0.1,0.1-0.2v-1.5
			c0-0.1,0-0.2-0.1-0.2C133.5,40.2,133.5,40.3,133.5,40.3z M132.3,40.3v1.5c0,0.1,0.1,0.2,0.2,0.2c0.1,0,0.2-0.1,0.2-0.2v-1.5
			c0-0.1-0.1-0.2-0.2-0.2C132.4,40.1,132.3,40.2,132.3,40.3z M127.5,40.8v1.5c0,0.1,0.1,0.2,0.2,0.2c0.1,0,0.2-0.1,0.2-0.2v-1.5
			c0-0.1-0.1-0.2-0.2-0.2C127.7,40.6,127.5,40.7,127.5,40.8z M130,40.4v1.5c0,0.1,0.1,0.2,0.2,0.2c0.1,0,0.2-0.1,0.2-0.2v-1.5
			c0-0.1-0.1-0.2-0.2-0.2C130.1,40.2,130,40.3,130,40.4z"/>
		<g>
			<path fill="#FFFFFF" d="M175.2,26.1h18.5v3.5h-7.3v19.4h-4V29.5h-7.2V26.1z"/>
			<path fill="#FFFFFF" d="M198.4,26.1h4.3l8.8,22.8h-4.3l-2.1-6.1h-9.1l-2.1,6.1h-4.1L198.4,26.1z M197,39.9h7l-3.4-9.8h-0.1
				L197,39.9z"/>
			<path fill="#FFFFFF" d="M210.5,26.1h4.8l5.2,8.1l5.4-8.1h4.5l-7.5,11l8.1,11.8H226l-5.7-8.8l-5.8,8.8H210l8.1-11.8L210.5,26.1z"
				/>
			<path fill="#FFFFFF" d="M239.9,26.1h15.8v3.5h-11.8v6h10.4v3.3h-10.4v10.1h-4L239.9,26.1L239.9,26.1z"/>
			<path fill="#FFFFFF" d="M278.5,37.5c0,6.6-4.1,12-11,12s-10.9-5.4-10.9-12c0-6.5,4.1-12,11-12S278.5,31,278.5,37.5z M260.6,37.5
				c0,4.4,2,8.7,7,8.7c4.9,0,7-4.3,7-8.7s-2-8.7-7-8.7C262.6,28.8,260.6,33.1,260.6,37.5z"/>
			<path fill="#FFFFFF" d="M280.8,26.1h4v13.3c0,3.1,0.2,6.6,5.4,6.6s5.4-3.6,5.4-6.6V26.1h4v14.6c0,5.9-3.7,8.8-9.4,8.8
				s-9.4-2.9-9.4-8.8V26.1L280.8,26.1z"/>
			<path fill="#FFFFFF" d="M302.8,26.1h4.2l10.5,16.9h0.1V26.1h3.8v22.8h-4.2l-10.4-16.8h-0.1v16.8h-3.8L302.8,26.1L302.8,26.1z"/>
			<path fill="#FFFFFF" d="M325,26.1h9.5c7.1,0,10.1,5.1,10.1,11.4s-3,11.4-10.1,11.4H325V26.1z M329,45.7h3.9
				c6.3,0,7.6-3.6,7.6-8.2s-1.4-8.2-7.6-8.2H329V45.7z"/>
			<path fill="#FFFFFF" d="M353.1,26.1h4.3l8.8,22.8h-4.3l-2.1-6.1h-9.1l-2.1,6.1h-4.1L353.1,26.1z M351.8,39.9h7l-3.4-9.8h-0.1
				L351.8,39.9z"/>
			<path fill="#FFFFFF" d="M362.1,26.1h18.5v3.5h-7.3v19.4h-4V29.5h-7.2V26.1z"/>
			<path fill="#FFFFFF" d="M382.2,26.1h4v22.8h-4V26.1z"/>
			<path fill="#FFFFFF" d="M410.7,37.5c0,6.6-4.1,12-11,12c-6.9,0-10.9-5.4-10.9-12c0-6.5,4.1-12,11-12
				C406.6,25.5,410.7,31,410.7,37.5z M392.8,37.5c0,4.4,2,8.7,7,8.7c4.9,0,7-4.3,7-8.7s-2-8.7-7-8.7
				C394.8,28.8,392.8,33.1,392.8,37.5z"/>
			<path fill="#FFFFFF" d="M413.1,26.1h4.2l10.5,16.9h0.1V26.1h3.8v22.8h-4.2L417,32.1h-0.1v16.8h-3.8L413.1,26.1L413.1,26.1z"/>
		</g>
	</g>
</g>
</svg>
